/* XPM */
static char * netpanzer_xpm[] = {
"32 32 340 2",
"  	c None",
". 	c #3C4B3B",
"+ 	c #39463D",
"@ 	c #394839",
"# 	c #3A473C",
"$ 	c #3B4B3E",
"% 	c #3C4C3F",
"& 	c #3B463B",
"* 	c #3D443F",
"= 	c #3C4840",
"- 	c #3B4639",
"; 	c #3A4639",
"> 	c #3B4A3C",
", 	c #3B473B",
"' 	c #373E3C",
") 	c #3A443A",
"! 	c #435144",
"~ 	c #3E5044",
"{ 	c #333F35",
"] 	c #3D4C3D",
"^ 	c #3E4C3D",
"/ 	c #3D483E",
"( 	c #353D39",
"_ 	c #38443A",
": 	c #3D4C3E",
"< 	c #3B4A3F",
"[ 	c #383F39",
"} 	c #3D473E",
"| 	c #475A49",
"1 	c #415345",
"2 	c #313C30",
"3 	c #363E34",
"4 	c #3E4740",
"5 	c #3A423A",
"6 	c #3C453D",
"7 	c #3D493D",
"8 	c #37413A",
"9 	c #38423A",
"0 	c #3A4939",
"a 	c #363E36",
"b 	c #3A433D",
"c 	c #3C4A3E",
"d 	c #3D4D3D",
"e 	c #3C473E",
"f 	c #3C433E",
"g 	c #3C4E3D",
"h 	c #3A483A",
"i 	c #2E392C",
"j 	c #313C31",
"k 	c #384238",
"l 	c #3C4A3B",
"m 	c #3C4B3E",
"n 	c #3B4B3C",
"o 	c #394039",
"p 	c #3D493A",
"q 	c #415044",
"r 	c #3F4B3E",
"s 	c #435246",
"t 	c #3A423C",
"u 	c #38423B",
"v 	c #405044",
"w 	c #344238",
"x 	c #2E3830",
"y 	c #3A4739",
"z 	c #364435",
"A 	c #384536",
"B 	c #3E4A3E",
"C 	c #36423A",
"D 	c #3C493B",
"E 	c #38423C",
"F 	c #3A423D",
"G 	c #404D42",
"H 	c #495E4C",
"I 	c #373E36",
"J 	c #373E38",
"K 	c #3C453C",
"L 	c #435344",
"M 	c #3F4741",
"N 	c #3C453F",
"O 	c #415144",
"P 	c #2C3932",
"Q 	c #333F34",
"R 	c #354137",
"S 	c #334136",
"T 	c #3C493E",
"U 	c #3D493F",
"V 	c #3B483C",
"W 	c #3C483B",
"X 	c #3B493B",
"Y 	c #465848",
"Z 	c #475A47",
"` 	c #343A36",
" .	c #38413A",
"..	c #3B453B",
"+.	c #3F4C3F",
"@.	c #455746",
"#.	c #414A43",
"$.	c #39433C",
"%.	c #303E36",
"&.	c #354235",
"*.	c #344334",
"=.	c #374438",
"-.	c #2E3C31",
";.	c #26302D",
">.	c #323E33",
",.	c #3D493E",
"'.	c #3D483D",
").	c #3C4C3D",
"!.	c #3A493F",
"~.	c #3C463C",
"{.	c #3B423D",
"].	c #394437",
"^.	c #323E31",
"/.	c #2B3328",
"(.	c #333F33",
"_.	c #3D4C3C",
":.	c #455848",
"<.	c #475C4B",
"[.	c #404C45",
"}.	c #2D3933",
"|.	c #2F3C31",
"1.	c #3F5040",
"2.	c #364237",
"3.	c #29352F",
"4.	c #2D332D",
"5.	c #383E38",
"6.	c #3D4641",
"7.	c #3A463B",
"8.	c #3A463F",
"9.	c #3E4D3E",
"0.	c #3D4A3E",
"a.	c #3A413B",
"b.	c #3D4A3C",
"c.	c #354435",
"d.	c #2E3532",
"e.	c #363F39",
"f.	c #334233",
"g.	c #3B4C3C",
"h.	c #445346",
"i.	c #39443A",
"j.	c #2C362C",
"k.	c #343E35",
"l.	c #344336",
"m.	c #3E4D41",
"n.	c #2E3932",
"o.	c #303D33",
"p.	c #3C493C",
"q.	c #3C473D",
"r.	c #3A4A3A",
"s.	c #3B453C",
"t.	c #3C443D",
"u.	c #3A463E",
"v.	c #39483E",
"w.	c #3F4F40",
"x.	c #3D4A3D",
"y.	c #39493D",
"z.	c #3A493B",
"A.	c #3C4B3D",
"B.	c #292D29",
"C.	c #2F3631",
"D.	c #334137",
"E.	c #344536",
"F.	c #354237",
"G.	c #324033",
"H.	c #324134",
"I.	c #354438",
"J.	c #37473A",
"K.	c #313B31",
"L.	c #374238",
"M.	c #3B4A3D",
"N.	c #3B493C",
"O.	c #39453A",
"P.	c #373D37",
"Q.	c #425242",
"R.	c #3E4B3F",
"S.	c #3B433B",
"T.	c #3E4B3D",
"U.	c #405041",
"V.	c #405141",
"W.	c #3D4F3F",
"X.	c #37463A",
"Y.	c #3C4B3C",
"Z.	c #445447",
"`.	c #262723",
" +	c #2F3936",
".+	c #363F3A",
"++	c #303930",
"@+	c #323A33",
"#+	c #354234",
"$+	c #343F34",
"%+	c #334234",
"&+	c #39463B",
"*+	c #3D4B3E",
"=+	c #3E4E3F",
"-+	c #3E4C3E",
";+	c #465845",
">+	c #3F4E40",
",+	c #415042",
"'+	c #425343",
")+	c #435342",
"!+	c #425246",
"~+	c #1F2320",
"{+	c #282F28",
"]+	c #2A3333",
"^+	c #313836",
"/+	c #323E32",
"(+	c #2D382F",
"_+	c #324233",
":+	c #374537",
"<+	c #394538",
"[+	c #404F41",
"}+	c #425245",
"|+	c #425143",
"1+	c #4C614D",
"2+	c #4C624D",
"3+	c #435243",
"4+	c #3E4940",
"5+	c #3F4B43",
"6+	c #415143",
"7+	c #405142",
"8+	c #3A453A",
"9+	c #3A453D",
"0+	c #161B15",
"a+	c #1B2423",
"b+	c #262C2F",
"c+	c #2B3632",
"d+	c #2E342D",
"e+	c #384339",
"f+	c #384738",
"g+	c #3E4D3F",
"h+	c #3B483B",
"i+	c #3D443C",
"j+	c #485749",
"k+	c #4F6350",
"l+	c #4D5F4D",
"m+	c #475A4A",
"n+	c #3C453E",
"o+	c #3F4740",
"p+	c #434E46",
"q+	c #3C433D",
"r+	c #3D4440",
"s+	c #3A463C",
"t+	c #2B2C30",
"u+	c #080B0A",
"v+	c #0E1413",
"w+	c #2B312D",
"x+	c #2D322E",
"y+	c #36453A",
"z+	c #3A473A",
"A+	c #38453B",
"B+	c #354138",
"C+	c #384237",
"D+	c #384138",
"E+	c #3F473C",
"F+	c #495D4E",
"G+	c #4D614D",
"H+	c #4C614E",
"I+	c #485A4A",
"J+	c #435245",
"K+	c #465949",
"L+	c #4A5F4D",
"M+	c #435345",
"N+	c #3D4442",
"O+	c #2D352D",
"P+	c #121513",
"Q+	c #040504",
"R+	c #0E110E",
"S+	c #2B372B",
"T+	c #3D493C",
"U+	c #39463A",
"V+	c #2F3D33",
"W+	c #2F3A33",
"X+	c #3A463A",
"Y+	c #3C483D",
"Z+	c #3E4743",
"`+	c #455948",
" @	c #4A604D",
".@	c #4A604E",
"+@	c #414F44",
"@@	c #2D3230",
"#@	c #000000",
"$@	c #192019",
"%@	c #354233",
"&@	c #2B382B",
"*@	c #212C27",
"=@	c #2D2E28",
"-@	c #333B37",
";@	c #323E34",
">@	c #303D34",
",@	c #334035",
"'@	c #3A423B",
")@	c #3E4644",
"!@	c #414D42",
"~@	c #354134",
"{@	c #0B0D0C",
"]@	c #384639",
"^@	c #313A30",
"/@	c #030303",
"(@	c #060606",
"_@	c #181D18",
":@	c #222925",
"<@	c #27342F",
"[@	c #333E34",
"}@	c #303831",
"|@	c #313F33",
"1@	c #323934",
"2@	c #415043",
"3@	c #3F4742",
"4@	c #404C43",
"5@	c #334134",
"6@	c #313D30",
"7@	c #3B4B3B",
"8@	c #293428",
"9@	c #0B0B0A",
"0@	c #060605",
"a@	c #020202",
"b@	c #070909",
"c@	c #212926",
"d@	c #2E342F",
"e@	c #2A3733",
"f@	c #2E3833",
"g@	c #2E3A2E",
"h@	c #39493A",
"i@	c #465748",
"j@	c #181A19",
"k@	c #070907",
"l@	c #394738",
"m@	c #0E120F",
"n@	c #272725",
"o@	c #32332F",
"p@	c #292F2C",
"q@	c #344035",
"r@	c #1C201D",
"s@	c #384537",
"t@	c #161819",
"u@	c #161B19",
"v@	c #1E1816",
"w@	c #282928",
"x@	c #222627",
"y@	c #101211",
"                                                                ",
"                                                                ",
"                                                                ",
"                                                                ",
"                                                                ",
"                    . + @                                       ",
"                @ # $ % & * =                                   ",
"              - ; > , ' ) ! ~ { ] ^ /                           ",
"            ( _ : < [ } | 1 2 3 4 5 6 7 8 9                     ",
"          0 a b c d e f g h i j k l m n o p q                   ",
"        r s l t u v w x y z A B % C , D E F G H                 ",
"      I J K L M N O P Q R S ) T q U J V W X & Y Z               ",
"    `  ...+.@.#.$.%.&.*.=.-.;.>.,.'.) ).!.m ~.{.].^.            ",
"    /.(._.:.<.[.}.|.] 1.2.3.4.5.6.7.7.8.d 9.0.a.b.l c.          ",
"    d.e.f.g.h.i.j.k.l.m.n.o.p.q.r.s.t.a.u.v.w.x.y.z.A.]         ",
"    B.C.D.E. .F.G.H.I.J.K.L.M.N.O.P.Q.R.S.{ T.U.V.W.X.Y.Z.      ",
"      `. +.+++@+#+$+%+&+o *+=+-+&+*+;+Z r.# >+,+'+'+=+> )+!+    ",
"        ~+{+]+^+/+(+_+:+<+b.[+}+, |+1+2+3+s.4+5++.6+'+7+8+9+    ",
"          0+a+b+c+d+e+f+g+h+N.R.i+j+k+l+m+n+o+p+q+r+9.s+t+      ",
"            u+v+w+x+y+z+A+B+C+D+E+F+G+H+I+J+K+L+M+N+O+P+        ",
"              Q+R+S+T+U+V+W+F.X.X+Y+t.Z+`+ @ @.@+@@@#@          ",
"                $@%@&@*@=@-@;@>@,@'@t )@!@I+ @.@~@{@            ",
"                ]@^@/@(@_@:@<@[@}@|@1@p.2@3@4@5@#@              ",
"              6@7@8@9@0@a@b@c@d@e@f@g@h@i@+@j@k@                ",
"            _+l@            #@m@n@o@p@W+q@r@#@                  ",
"            : s@                t@u@v@w@x@y@                    ",
"          z                                                     ",
"                                                                ",
"                                                                ",
"                                                                ",
"                                                                ",
"                                                                "};
